# xmcd
#
# Track frame offsets:
#	150
#	14180
#	25969
#	38574
#	50654
#	64343
#	74704
#	84984
#	94214
#	124519
#	137274
#	146090
#	158931
#	171373
#	195715
#	211573
#	227728
#
# Disc length: 3173 seconds
#
# Revision: 0
# Processed by: cddbd v1.5.2PL0 Copyright (c) Steve Scherf et al.
# Submitted via: EasyCDDAExtractor 2011.0.0.0
#
DISCID=f30c6311
DTITLE=안산시립합창단 - Dance with the Choir
DYEAR=1900
DGENRE=Acapella
TTITLE0=라밤바
TTITLE1=썰매타기
TTITLE2=관따나메라
TTITLE3=줌갈리
TTITLE4=교향곡 40번
TTITLE5=라데츠키 행진곡
TTITLE6=마차가 달려오네
TTITLE7=하바나길라
TTITLE8=이탈리아샐러드
TTITLE9=무드를 타고
TTITLE10=휘가로의 결혼 서곡
TTITLE11=이탈리아 거리의 노래
TTITLE12=자진방아타령
TTITLE13=농부가
TTITLE14=한오백년
TTITLE15=보리타작
TTITLE16=경복궁타령
EXTD=
EXTT0=
EXTT1=
EXTT2=
EXTT3=
EXTT4=
EXTT5=
EXTT6=
EXTT7=
EXTT8=
EXTT9=
EXTT10=
EXTT11=
EXTT12=
EXTT13=
EXTT14=
EXTT15=
EXTT16=
PLAYORDER=
